<svg width="24" height="25" viewBox="0 0 24 25" fill="none" xmlns="http://www.w3.org/2000/svg">
<g clip-path="url(#clip0_1_9256)">
<g clip-path="url(#clip1_1_9256)">
<g clip-path="url(#clip2_1_9256)">
<mask id="mask0_1_9256" style="mask-type:luminance" maskUnits="userSpaceOnUse" x="0" y="0" width="24" height="25">
<path d="M24 0.220001H0V24.22H24V0.220001Z" fill="white"/>
</mask>
<g mask="url(#mask0_1_9256)">
<path d="M24 12.22C24 18.8475 18.6274 24.22 12 24.22C9.95186 24.22 8.02358 23.7069 6.33666 22.8022C4.94795 22.0575 4.22922 21.0474 3.23548 19.8397C2.29755 18.6999 1.05944 17.384 0.590729 15.9492C0.207341 14.7754 0 13.5219 0 12.22C0 10.0045 0.600377 7.92929 1.64734 6.14807C3.73224 2.60096 7.58805 1.10096 12 1.10096C13.32 1.10096 14.5903 0.433197 15.7783 0.826938C20.5545 2.41004 24 6.91268 24 12.22Z" fill="url(#paint0_linear_1_9256)"/>
<path d="M14.6712 1.90978C13.4633 1.50117 12.1693 1.27957 10.8235 1.27957C8.02361 1.27957 5.6862 2.47703 3.64474 4.08437C3.01213 4.73355 2.21415 5.21576 1.74065 5.99444C1.26714 6.77312 0.879797 7.60997 0.591797 8.49185C0.64295 8.55392 0.700503 8.61195 0.765867 8.66357C1.06709 8.90141 1.46723 8.97308 1.83227 8.85458L5.09688 7.79463C5.49222 7.66625 5.92611 7.77049 6.21999 8.06442L7.00422 8.84865C7.32178 9.16621 7.41566 9.64428 7.24182 10.0584C6.99133 10.655 7.30455 11.3383 7.92008 11.5379L8.86361 11.8439C9.00587 11.8901 9.13043 11.9791 9.22018 12.0987C9.45721 12.4148 9.39778 12.8624 9.08644 13.1057L8.70498 13.4037C8.34912 13.6817 8.14112 14.1082 8.14112 14.5598V14.8967C8.14112 15.4752 8.42587 16.0165 8.90253 16.3442L9.55707 16.7942C9.61651 16.8351 9.68309 16.8644 9.7534 16.8806L10.1396 16.9697C10.9541 17.1577 11.5781 17.8132 11.7258 18.636C11.7824 18.9511 11.7658 19.2749 11.6773 19.5825L11.0345 21.8168C10.9289 22.184 11.2046 22.5502 11.5867 22.5502C11.7314 22.5502 11.8708 22.4956 11.977 22.3974L14.4393 20.1188C14.7864 19.7977 15.0682 19.4127 15.2695 18.9849L15.8193 17.8167C16.0011 17.4303 16.1143 17.0151 16.1538 16.5899L16.3676 14.2855C16.4608 13.2812 16.0228 12.3012 15.2124 11.7007C14.7153 11.3324 14.1131 11.1335 13.4945 11.1335H13.054C12.3983 11.1335 11.8454 10.6449 11.7648 9.99416C11.7067 9.52437 11.9087 9.06014 12.2921 8.78249L12.7791 8.42992C12.9474 8.30799 13.1426 8.22828 13.3482 8.19741L14.5427 8.01821C15.3723 7.89378 16.0965 7.39002 16.5017 6.65552C17.0262 5.70494 17.0528 4.55802 16.5732 3.58409C16.1853 2.79661 15.5027 2.1911 14.6712 1.90978Z" fill="url(#paint1_linear_1_9256)"/>
<path d="M12.0003 0.220001C11.6834 0.220001 11.3694 0.232519 11.0586 0.256613C17.2459 0.736895 22.117 5.90951 22.117 12.22C22.117 18.5305 17.2459 23.7031 11.0586 24.1834C11.3694 24.2075 11.6834 24.22 12.0003 24.22C15.458 24.22 18.5741 22.7576 20.7639 20.4176C20.7639 20.4176 23.9062 15.3897 23.9062 12.22C23.9062 9.90706 22.2122 5.91468 22.2122 5.91468C20.0974 2.49689 16.3147 0.220001 12.0003 0.220001Z" fill="url(#paint2_linear_1_9256)"/>
<path d="M17.7499 2.52447C17.3621 1.73699 16.6795 1.13153 15.848 0.850213C14.6401 0.441554 13.3461 0.220001 12.0003 0.220001C7.60136 0.220001 3.75533 2.58701 1.6662 6.11685C1.37322 6.61191 1.49124 7.24748 1.94272 7.604C2.24395 7.84184 2.64409 7.91351 3.00912 7.79501L6.27373 6.73506C6.66907 6.60668 7.10296 6.71092 7.39684 7.00485L8.18108 7.78908C8.49863 8.10664 8.59251 8.58471 8.41868 8.99878C8.16818 9.59543 8.4814 10.2787 9.09693 10.4784L10.0405 10.7844C10.1827 10.8305 10.3073 10.9195 10.397 11.0392C10.6341 11.3552 10.5746 11.8029 10.2633 12.0461L9.88183 12.3441C9.52597 12.6222 9.31797 13.0487 9.31797 13.5003V13.8372C9.31797 14.4156 9.60272 14.957 10.0794 15.2847L10.7339 15.7347C10.7934 15.7755 10.86 15.8048 10.9303 15.8211L11.3164 15.9102C12.131 16.0982 12.755 16.7537 12.9027 17.5765C12.9592 17.8915 12.9426 18.2153 12.8541 18.523L12.2114 20.7573C12.1057 21.1246 12.3814 21.4907 12.7636 21.4907C12.9083 21.4907 13.0476 21.4361 13.1538 21.3378L15.6162 19.0592C15.9632 18.7381 16.245 18.3532 16.4464 17.9254L16.9961 16.7571C17.178 16.3707 17.2912 15.9556 17.3306 15.5304L17.5444 13.226C17.6376 12.2217 17.1996 11.2416 16.3892 10.6411C15.8922 10.2728 15.29 10.074 14.6714 10.074H14.2308C13.5751 10.074 13.0223 9.58537 12.9417 8.93464C12.8835 8.46485 13.0856 8.00061 13.469 7.72296L13.9559 7.3704C14.1243 7.24847 14.3195 7.16875 14.5251 7.13788L15.7196 6.95868C16.5491 6.83426 17.2734 6.33049 17.6786 5.596C18.203 4.64532 18.2296 3.4984 17.7499 2.52447Z" fill="url(#paint3_linear_1_9256)"/>
<path d="M4.86707 18.0718C4.05103 17.6666 3.40867 16.9805 3.05813 16.1395L2.67728 15.2259C2.52161 14.8524 2.17427 14.5939 1.77187 14.5519C0.973288 14.4686 0.355405 15.2377 0.608111 15.9998C1.58194 18.9364 3.65945 21.3694 6.34905 22.8079L6.52303 21.0656C6.64731 19.8204 5.98792 18.6282 4.86707 18.0718Z" fill="url(#paint4_linear_1_9256)"/>
<path d="M22.2111 5.91507L22.1359 6.05596C21.5028 7.24312 21.6767 8.69907 22.5717 9.70363C23.0975 10.2938 23.3881 11.0567 23.3881 11.8472C23.3881 12.7723 22.9905 13.6528 22.2964 14.2645L21.3578 15.0919C20.7478 15.6296 20.3983 16.4035 20.3983 17.2166V17.4622C20.3983 17.9437 20.2755 18.4173 20.0416 18.8382L19.6235 19.5904C19.5181 19.78 19.5053 20.0073 19.5888 20.2075C19.7873 20.6837 20.4104 20.7937 20.7629 20.417C22.7704 18.272 23.9998 15.3897 23.9998 12.22C23.9998 9.90697 23.3448 7.7473 22.2111 5.91507Z" fill="url(#paint5_linear_1_9256)"/>
<path d="M22.2111 5.91507L22.136 6.05596C21.5028 7.24312 21.6768 8.69907 22.5717 9.70363C23.0976 10.2938 23.3881 11.0567 23.3881 11.8472C23.3881 12.7723 22.9905 13.6528 22.2965 14.2645L21.8718 14.6388C21.5111 16.401 20.7643 18.0223 19.7234 19.4107L19.6235 19.5904C19.5181 19.78 19.5053 20.0073 19.5888 20.2075C19.7873 20.6837 20.4104 20.7937 20.7629 20.417C22.7705 18.272 23.9999 15.3897 23.9999 12.22C23.9999 9.90697 23.3449 7.7473 22.2111 5.91507Z" fill="url(#paint6_linear_1_9256)"/>
<path d="M13.4684 7.72287L13.9553 7.37031C14.1237 7.24838 14.3189 7.16866 14.5245 7.13779L15.719 6.95859C16.5485 6.83417 17.2728 6.3304 17.678 5.59591C18.2025 4.64532 18.2291 3.4984 17.7494 2.52447C17.3616 1.73699 16.679 1.13153 15.8474 0.850213C14.6396 0.441554 13.3456 0.220001 11.9998 0.220001C11.6827 0.220001 11.3686 0.232707 11.0577 0.256848C12.0666 0.335154 13.0406 0.537789 13.9641 0.850213C14.7956 1.13153 15.4782 1.73699 15.8661 2.52447C16.3458 3.4984 16.3191 4.64532 15.7946 5.59591C15.3894 6.3304 14.6652 6.83417 13.8356 6.95859L12.6411 7.13779C12.4355 7.16861 12.2403 7.24838 12.072 7.37031L11.585 7.72287C11.2017 8.00052 10.9996 8.46475 11.0577 8.93454C11.1383 9.58527 11.6912 10.0739 12.3469 10.0739H12.7874C13.406 10.0739 14.0083 10.2728 14.5053 10.641C15.3156 11.2415 15.7537 12.2216 15.6605 13.2259L15.4467 15.5303C15.4073 15.9555 15.294 16.3706 15.1122 16.757L14.5624 17.9253C14.3611 18.353 14.0793 18.738 13.7322 19.0592L12.3245 20.3618L12.2107 20.7571C12.1051 21.1244 12.3808 21.4905 12.7629 21.4905C12.9076 21.4905 13.047 21.436 13.1532 21.3377L15.6155 19.0591C15.9625 18.738 16.2444 18.353 16.4457 17.9252L16.9955 16.7569C17.1773 16.3705 17.2905 15.9554 17.33 15.5302L17.5438 13.2258C17.6369 12.2216 17.199 11.2415 16.3886 10.641C15.8915 10.2727 15.2893 10.0739 14.6707 10.0739H14.2302C13.5745 10.0739 13.0216 9.58522 12.941 8.93449C12.8829 8.46471 13.0849 8.00052 13.4684 7.72287Z" fill="url(#paint7_linear_1_9256)"/>
<path d="M4.86727 18.0717C4.05123 17.6666 3.40887 16.9804 3.05833 16.1395L2.67748 15.2258C2.52181 14.8524 2.17447 14.5939 1.77207 14.5519C1.50977 14.5245 1.26723 14.5896 1.06836 14.7157C1.25828 14.8351 1.41113 15.0114 1.5005 15.2258L1.88134 16.1395C2.23188 16.9804 2.87424 17.6666 3.69028 18.0717C4.81113 18.6282 5.47052 19.8203 5.34619 21.0656L5.23956 22.1338C5.59626 22.3775 5.96628 22.6031 6.34925 22.8079L6.52323 21.0656C6.64751 19.8204 5.98812 18.6282 4.86727 18.0717Z" fill="url(#paint8_linear_1_9256)"/>
</g>
</g>
</g>
</g>
<defs>
<linearGradient id="paint0_linear_1_9256" x1="-0.388706" y1="12.4613" x2="29.0454" y2="12.4613" gradientUnits="userSpaceOnUse">
<stop stop-color="#60B7FF"/>
<stop offset="0.5857" stop-color="#0182FC"/>
<stop offset="1" stop-color="#2740B0"/>
</linearGradient>
<linearGradient id="paint1_linear_1_9256" x1="-5.74067" y1="11.9149" x2="25.7567" y2="11.9149" gradientUnits="userSpaceOnUse">
<stop stop-color="#60B7FF"/>
<stop offset="0.5857" stop-color="#0182FC"/>
<stop offset="1" stop-color="#2740B0"/>
</linearGradient>
<linearGradient id="paint2_linear_1_9256" x1="-1.69454" y1="12.22" x2="24.3128" y2="12.22" gradientUnits="userSpaceOnUse">
<stop stop-color="#60B7FF"/>
<stop offset="0.5857" stop-color="#0182FC"/>
<stop offset="1" stop-color="#2740B0"/>
</linearGradient>
<linearGradient id="paint3_linear_1_9256" x1="0.329732" y1="10.8553" x2="24.9922" y2="10.8553" gradientUnits="userSpaceOnUse">
<stop stop-color="#A2E62E"/>
<stop offset="0.5857" stop-color="#81B823"/>
<stop offset="1" stop-color="#037E73"/>
</linearGradient>
<linearGradient id="paint4_linear_1_9256" x1="0.32957" y1="18.6768" x2="24.992" y2="18.6768" gradientUnits="userSpaceOnUse">
<stop stop-color="#A2E62E"/>
<stop offset="0.5857" stop-color="#81B823"/>
<stop offset="1" stop-color="#037E73"/>
</linearGradient>
<linearGradient id="paint5_linear_1_9256" x1="0.329227" y1="13.2791" x2="24.9917" y2="13.2791" gradientUnits="userSpaceOnUse">
<stop stop-color="#A2E62E"/>
<stop offset="0.5857" stop-color="#81B823"/>
<stop offset="1" stop-color="#037E73"/>
</linearGradient>
<linearGradient id="paint6_linear_1_9256" x1="8.28222" y1="13.2791" x2="19.0437" y2="13.2791" gradientUnits="userSpaceOnUse">
<stop stop-color="#A2E62E"/>
<stop offset="0.5857" stop-color="#81B823"/>
<stop offset="1" stop-color="#037E73"/>
</linearGradient>
<linearGradient id="paint7_linear_1_9256" x1="-0.370587" y1="10.8553" x2="21.8659" y2="10.8553" gradientUnits="userSpaceOnUse">
<stop stop-color="#A2E62E"/>
<stop offset="0.5857" stop-color="#81B823"/>
<stop offset="1" stop-color="#037E73"/>
</linearGradient>
<linearGradient id="paint8_linear_1_9256" x1="-1.85226" y1="18.6768" x2="14.4625" y2="18.6768" gradientUnits="userSpaceOnUse">
<stop stop-color="#A2E62E"/>
<stop offset="0.5857" stop-color="#81B823"/>
<stop offset="1" stop-color="#037E73"/>
</linearGradient>
<clipPath id="clip0_1_9256">
<rect width="24" height="24" fill="white" transform="translate(0 0.220001)"/>
</clipPath>
<clipPath id="clip1_1_9256">
<rect width="24" height="24" fill="white" transform="translate(0 0.220001)"/>
</clipPath>
<clipPath id="clip2_1_9256">
<rect width="24" height="24" fill="white" transform="translate(0 0.220001)"/>
</clipPath>
</defs>
</svg>
