<svg width="22" height="24" viewBox="0 0 22 24" fill="none" xmlns="http://www.w3.org/2000/svg">
<g clip-path="url(#clip0_1_10091)">
<mask id="mask0_1_10091" style="mask-type:luminance" maskUnits="userSpaceOnUse" x="0" y="1" width="22" height="23">
<path d="M22 1.08008H0V23.0801H22V1.08008Z" fill="white"/>
</mask>
<g mask="url(#mask0_1_10091)">
<path d="M11 2.36914C13.2406 2.37005 15.412 3.14553 17.1463 4.56419C18.8806 5.98286 20.0711 7.95747 20.5161 10.1534C20.9611 12.3494 20.6333 14.6317 19.5881 16.6137C18.5429 18.5956 16.8447 20.1552 14.7812 21.0283C12.408 22.0312 9.73363 22.0502 7.34639 21.0812C4.95914 20.1122 3.05461 18.2346 2.05176 15.8613C1.04891 13.4881 1.02989 10.8137 1.99889 8.42647C2.96789 6.03922 4.84553 4.13469 7.21875 3.13184C8.41496 2.62562 9.70109 2.36621 11 2.36914ZM11 1.08008C4.92508 1.08008 0 6.00516 0 12.0801C0 18.155 4.92508 23.0801 11 23.0801C17.0749 23.0801 22 18.155 22 12.0801C22 6.00516 17.0749 1.08008 11 1.08008Z" fill="#575756"/>
<path d="M14.2094 18.0036C13.5705 17.9606 12.6699 17.7402 11.7907 17.4256C8.69097 16.3162 5.6664 13.3604 5.02359 9.22591C4.90929 8.48985 5.02961 7.81739 5.58734 7.26997C5.77425 7.08692 5.94054 6.88325 6.12316 6.69591C6.81066 5.98821 7.81527 5.97016 8.52726 6.64993C8.75285 6.86477 8.9823 7.07661 9.2023 7.29833C9.50356 7.59541 9.67798 7.99767 9.68896 8.42062C9.69994 8.84358 9.54661 9.25434 9.26117 9.56665C9.08929 9.75743 8.90882 9.93876 8.7275 10.1197C8.52941 10.3173 8.2832 10.4308 8.01894 10.5133C7.69281 10.6155 7.63222 10.7522 7.78047 11.0637C8.71718 13.0256 10.1834 14.4383 12.1792 15.3017C12.446 15.4169 12.5693 15.3649 12.6768 15.1002C12.9122 14.5197 13.3441 14.0964 13.8403 13.7544C14.4019 13.3677 15.2063 13.4536 15.7383 13.9108C16.0299 14.1614 16.3086 14.4267 16.5732 14.7057C16.8579 15.0103 17.016 15.4118 17.0156 15.8287C17.0152 16.2456 16.8563 16.6468 16.571 16.9508C16.4881 17.0411 16.4026 17.1292 16.3231 17.222C15.8444 17.7784 15.2373 18.0388 14.2094 18.0036Z" fill="#575756"/>
</g>
</g>
<defs>
<clipPath id="clip0_1_10091">
<rect width="22" height="23" fill="white" transform="translate(0 0.580078)"/>
</clipPath>
</defs>
</svg>
